RobotoDelta-opszmax-wdthmin.ufo
<glyph name="slash" format="2">
  <advance width="372"/>
  <unicode hex="002F"/>
  <outline>
    <contour>
      <point x="-100" y="-125" type="line"/>
      <point x="-14" y="-125" type="line"/>
      <point x="472" y="1456" type="line"/>
      <point x="385" y="1456" type="line"/>
    </contour>
  </outline>
</glyph>
<glyph name="zero" format="2">
  <advance width="588"/>
  <unicode hex="0030"/>
  <outline>
    <contour>
      <point x="66" y="323" type="line" smooth="yes"/>
      <point x="66" y="160"/>
      <point x="185" y="-10"/>
      <point x="294" y="-10" type="qcurve" smooth="yes"/>
      <point x="402" y="-10"/>
      <point x="522" y="160"/>
      <point x="522" y="323" type="qcurve" smooth="yes"/>
      <point x="522" y="1149" type="line" smooth="yes"/>
      <point x="522" y="1310"/>
      <point x="402" y="1475"/>
      <point x="294" y="1475" type="qcurve" smooth="yes"/>
      <point x="185" y="1475"/>
      <point x="66" y="1310"/>
      <point x="66" y="1149" type="qcurve" smooth="yes"/>
    </contour>
    <contour>
      <point x="170" y="294" type="qcurve" smooth="yes"/>
      <point x="170" y="1152" type="line" smooth="yes"/>
      <point x="170" y="1264"/>
      <point x="232" y="1384"/>
      <point x="294" y="1384" type="qcurve" smooth="yes"/>
      <point x="357" y="1384"/>
      <point x="418" y="1264"/>
      <point x="418" y="1152" type="qcurve" smooth="yes"/>
      <point x="418" y="294" type="line" smooth="yes"/>
      <point x="418" y="192"/>
      <point x="357" y="81"/>
      <point x="294" y="81" type="qcurve" smooth="yes"/>
      <point x="232" y="81"/>
      <point x="170" y="192"/>
    </contour>
  </outline>
</glyph>
<glyph name="three" format="2">
  <advance width="588"/>
  <unicode hex="0033"/>
  <outline>
    <contour>
      <point x="29" y="325" type="line" smooth="yes"/>
      <point x="29" y="162"/>
      <point x="157" y="-10"/>
      <point x="291" y="-10.0" type="qcurve" smooth="yes"/>
      <point x="426.0" y="-10.0"/>
      <point x="549" y="198"/>
      <point x="549" y="388" type="qcurve" smooth="yes"/>
      <point x="549" y="574"/>
      <point x="433" y="735"/>
      <point x="357" y="760" type="qcurve"/>
      <point x="357" y="764" type="line"/>
      <point x="432" y="794"/>
      <point x="506" y="966"/>
      <point x="506" y="1114" type="qcurve" smooth="yes"/>
      <point x="506" y="1301"/>
      <point x="400" y="1476.0"/>
      <point x="292" y="1476.0" type="qcurve" smooth="yes"/>
      <point x="179" y="1476"/>
      <point x="61" y="1316"/>
      <point x="61" y="1145" type="qcurve" smooth="yes"/>
      <point x="61" y="1085" type="line"/>
      <point x="163" y="1085" type="line"/>
      <point x="163" y="1145" type="line" smooth="yes"/>
      <point x="163" y="1278.0"/>
      <point x="224" y="1385"/>
      <point x="284" y="1385" type="qcurve" smooth="yes"/>
      <point x="351" y="1385"/>
      <point x="403.0" y="1246"/>
      <point x="403" y="1110" type="qcurve" smooth="yes"/>
      <point x="403.0" y="941"/>
      <point x="321" y="804.0"/>
      <point x="234" y="804" type="qcurve" smooth="yes"/>
      <point x="198" y="804" type="line"/>
      <point x="198" y="713" type="line"/>
      <point x="241" y="713" type="line" smooth="yes"/>
      <point x="333" y="713.0"/>
      <point x="446" y="573"/>
      <point x="446" y="391" type="qcurve" smooth="yes"/>
      <point x="446" y="228"/>
      <point x="369" y="81"/>
      <point x="294" y="81" type="qcurve" smooth="yes"/>
      <point x="209" y="81"/>
      <point x="130" y="184.0"/>
      <point x="130" y="325" type="qcurve" smooth="yes"/>
      <point x="130" y="395" type="line"/>
      <point x="29" y="395" type="line"/>
    </contour>
  </outline>
</glyph>
<glyph name="four" format="2">
  <advance width="588"/>
  <unicode hex="0034"/>
  <outline>
    <contour>
      <point x="371" y="0" type="line"/>
      <point x="475" y="0" type="line"/>
      <point x="475" y="1467" type="line"/>
      <point x="399" y="1467" type="line"/>
      <point x="7" y="450" type="line"/>
      <point x="7" y="351" type="line"/>
      <point x="583" y="351" type="line"/>
      <point x="583" y="441" type="line"/>
      <point x="428" y="441" type="line"/>
      <point x="416" y="437" type="line"/>
      <point x="98" y="437" type="line"/>
      <point x="372" y="1172" type="line"/>
      <point x="376" y="1172" type="line"/>
      <point x="376" y="403" type="line"/>
      <point x="371" y="391" type="line"/>
    </contour>
  </outline>
</glyph>
<glyph name="six" format="2">
  <advance width="588"/>
  <unicode hex="0036"/>
  <outline>
    <contour>
      <point x="47" y="614.0" type="line" smooth="yes"/>
      <point x="47" y="249"/>
      <point x="188" y="-10.0"/>
      <point x="299" y="-10.0" type="qcurve" smooth="yes"/>
      <point x="413" y="-10"/>
      <point x="551" y="205"/>
      <point x="551" y="455.0" type="qcurve" smooth="yes"/>
      <point x="551" y="697"/>
      <point x="427" y="900"/>
      <point x="313" y="900.0" type="qcurve" smooth="yes"/>
      <point x="207" y="900.0"/>
      <point x="64" y="664.0"/>
      <point x="64" y="465.0" type="qcurve"/>
      <point x="143" y="465.0" type="line"/>
      <point x="143" y="620.0"/>
      <point x="218" y="812.0"/>
      <point x="303" y="812.0" type="qcurve" smooth="yes"/>
      <point x="382" y="812"/>
      <point x="451" y="666"/>
      <point x="451" y="455.0" type="qcurve" smooth="yes"/>
      <point x="451" y="229"/>
      <point x="376" y="80.0"/>
      <point x="304" y="80" type="qcurve" smooth="yes"/>
      <point x="221" y="80.0"/>
      <point x="142" y="319"/>
      <point x="142" y="614.0" type="qcurve" smooth="yes"/>
      <point x="142" y="634.0" type="line" smooth="yes"/>
      <point x="142" y="1006"/>
      <point x="273.0" y="1385.0"/>
      <point x="419" y="1385.0" type="qcurve" smooth="yes"/>
      <point x="470" y="1385.0" type="line"/>
      <point x="470" y="1476.0" type="line"/>
      <point x="419" y="1476.0" type="line" smooth="yes"/>
      <point x="217" y="1476"/>
      <point x="47" y="1038"/>
      <point x="47" y="644.0" type="qcurve" smooth="yes"/>
    </contour>
  </outline>
</glyph>
<glyph name="seven" format="2">
  <advance width="588"/>
  <unicode hex="0037"/>
  <outline>
    <contour>
      <point x="115" y="0" type="line"/>
      <point x="225" y="0" type="line"/>
      <point x="545" y="1374" type="line"/>
      <point x="545" y="1456" type="line"/>
      <point x="46" y="1456" type="line"/>
      <point x="46" y="1361" type="line"/>
      <point x="437" y="1361" type="line"/>
    </contour>
  </outline>
</glyph>
<glyph name="nine" format="2">
  <advance width="588"/>
  <unicode hex="0039"/>
  <outline>
    <contour>
      <point x="37.0" y="1011.0" type="qcurve" smooth="yes"/>
      <point x="37.0" y="769.0"/>
      <point x="161.0" y="566.0"/>
      <point x="275.0" y="566.0" type="qcurve" smooth="yes"/>
      <point x="381.0" y="566.0"/>
      <point x="524.0" y="802.0"/>
      <point x="524.0" y="1001.0" type="qcurve"/>
      <point x="445.0" y="1001.0" type="line"/>
      <point x="445.0" y="846.0"/>
      <point x="370.0" y="654.0"/>
      <point x="285.0" y="654.0" type="qcurve" smooth="yes"/>
      <point x="206.0" y="654.0"/>
      <point x="137.0" y="800.0"/>
      <point x="137.0" y="1011.0" type="qcurve" smooth="yes"/>
      <point x="137.0" y="1237.0"/>
      <point x="212.0" y="1386.0"/>
      <point x="284.0" y="1386.0" type="qcurve" smooth="yes"/>
      <point x="367.0" y="1386.0"/>
      <point x="446.0" y="1147.0"/>
      <point x="446.0" y="852.0" type="qcurve" smooth="yes"/>
      <point x="446.0" y="832.0" type="line" smooth="yes"/>
      <point x="446.0" y="460.0"/>
      <point x="315.0" y="81.0"/>
      <point x="169.0" y="81.0" type="qcurve" smooth="yes"/>
      <point x="118.0" y="81.0" type="line"/>
      <point x="118.0" y="-10.0" type="line"/>
      <point x="169.0" y="-10.0" type="line" smooth="yes"/>
      <point x="371.0" y="-10.0"/>
      <point x="541.0" y="428.0"/>
      <point x="541.0" y="822.0" type="qcurve" smooth="yes"/>
      <point x="541.0" y="852.0" type="line" smooth="yes"/>
      <point x="541.0" y="1217.0"/>
      <point x="400.0" y="1476.0"/>
      <point x="289.0" y="1476.0" type="qcurve" smooth="yes"/>
      <point x="175.0" y="1476.0"/>
      <point x="37.0" y="1261.0"/>
    </contour>
  </outline>
</glyph>
<glyph name="question" format="2">
  <advance width="807"/>
  <unicode hex="003F"/>
  <outline>
    <contour>
      <point x="273" y="64" type="qcurve" smooth="yes"/>
      <point x="273" y="29"/>
      <point x="314" y="-22"/>
      <point x="351" y="-22" type="qcurve" smooth="yes"/>
      <point x="389" y="-22"/>
      <point x="428" y="29"/>
      <point x="428" y="64" type="qcurve" smooth="yes"/>
      <point x="428" y="99"/>
      <point x="388" y="150"/>
      <point x="350" y="150" type="qcurve" smooth="yes"/>
      <point x="313" y="150"/>
      <point x="273" y="99"/>
    </contour>
    <contour>
      <point x="123" y="1086" type="line"/>
      <point x="226" y="1086" type="line"/>
      <point x="226" y="1108" type="line" smooth="yes"/>
      <point x="226" y="1246.4406779661017"/>
      <point x="308.0" y="1388.0"/>
      <point x="386" y="1388" type="qcurve" smooth="yes"/>
      <point x="463.0" y="1388.0"/>
      <point x="539.0" y="1255.1363636363637"/>
      <point x="539" y="1141" type="qcurve" smooth="yes"/>
      <point x="539.0" y="1027.3048433048434"/>
      <point x="494.7634300345818" y="885.6048954236308"/>
      <point x="430" y="801" type="qcurve" smooth="yes"/>
      <point x="356.7615090709877" y="703.6066977048612"/>
      <point x="296" y="537.0578512396694"/>
      <point x="296" y="425" type="qcurve" smooth="yes"/>
      <point x="296" y="415" type="line"/>
      <point x="401" y="415" type="line"/>
      <point x="401" y="425" type="line" smooth="yes"/>
      <point x="401" y="497.81388012618294"/>
      <point x="439.31154335106294" y="645.4853623493966"/>
      <point x="505" y="733" type="qcurve" smooth="yes"/>
      <point x="580.0844066940958" y="831.2542535257012"/>
      <point x="642.0" y="994.8261964735516"/>
      <point x="642" y="1141" type="qcurve" smooth="yes"/>
      <point x="642" y="1294"/>
      <point x="506" y="1476"/>
      <point x="385" y="1476" type="qcurve" smooth="yes"/>
      <point x="264" y="1476"/>
      <point x="123" y="1286"/>
      <point x="123" y="1108" type="qcurve" smooth="yes"/>
    </contour>
  </outline>
</glyph>
<glyph name="A" format="2">
  <advance width="587"/>
  <unicode hex="0041"/>
  <outline>
    <contour>
      <point x="0" y="0" type="line"/>
      <point x="96" y="0" type="line"/>
      <point x="268" y="1077" type="line" smooth="yes"/>
      <point x="277" y="1131"/>
      <point x="286" y="1182"/>
      <point x="293" y="1235" type="qcurve"/>
      <point x="294" y="1235" type="line"/>
      <point x="301" y="1182"/>
      <point x="312" y="1131"/>
      <point x="320" y="1077" type="qcurve" smooth="yes"/>
      <point x="488" y="0" type="line"/>
      <point x="587" y="0" type="line"/>
      <point x="355" y="1455" type="line"/>
      <point x="242" y="1455" type="line"/>
    </contour>
    <contour>
      <point x="114" y="420" type="line"/>
      <point x="481" y="420" type="line"/>
      <point x="466" y="508" type="line"/>
      <point x="128" y="508" type="line"/>
    </contour>
  </outline>
</glyph>
<glyph name="C" format="2">
  <advance width="599"/>
  <unicode hex="0043"/>
  <outline>
    <contour>
      <point x="76" y="329" type="line" smooth="yes"/>
      <point x="76" y="147"/>
      <point x="205" y="-20"/>
      <point x="315" y="-20" type="qcurve" smooth="yes"/>
      <point x="425" y="-20"/>
      <point x="543" y="147"/>
      <point x="553" y="329" type="qcurve" smooth="yes"/>
      <point x="553" y="500" type="line"/>
      <point x="453" y="500" type="line"/>
      <point x="453" y="375" type="line" smooth="yes"/>
      <point x="453" y="210"/>
      <point x="391" y="71"/>
      <point x="316" y="71" type="qcurve" smooth="yes"/>
      <point x="241" y="71"/>
      <point x="176" y="210"/>
      <point x="176" y="375" type="qcurve" smooth="yes"/>
      <point x="176" y="1081" type="line" smooth="yes"/>
      <point x="176" y="1246"/>
      <point x="258" y="1385"/>
      <point x="326" y="1385" type="qcurve" smooth="yes"/>
      <point x="382" y="1385"/>
      <point x="455" y="1272"/>
      <point x="454" y="1081" type="qcurve" smooth="yes"/>
      <point x="453" y="950" type="line"/>
      <point x="553" y="950" type="line"/>
      <point x="553" y="1127" type="line" smooth="yes"/>
      <point x="553" y="1309"/>
      <point x="428" y="1476"/>
      <point x="321" y="1476" type="qcurve" smooth="yes"/>
      <point x="216" y="1476"/>
      <point x="76" y="1309"/>
      <point x="76" y="1127" type="qcurve" smooth="yes"/>
    </contour>
  </outline>
</glyph>
<glyph name="D" format="2">
  <advance width="687"/>
  <unicode hex="0044"/>
  <outline>
    <contour>
      <point x="100" y="0" type="line"/>
      <point x="304" y="0" type="line" smooth="yes"/>
      <point x="488" y="0"/>
      <point x="607" y="347"/>
      <point x="607" y="689" type="qcurve" smooth="yes"/>
      <point x="607" y="767" type="line" smooth="yes"/>
      <point x="607" y="1092"/>
      <point x="493" y="1456"/>
      <point x="260" y="1456" type="qcurve" smooth="yes"/>
      <point x="100" y="1456" type="line"/>
    </contour>
    <contour>
      <point x="202" y="91" type="line"/>
      <point x="202" y="1365" type="line"/>
      <point x="260" y="1365" type="line" smooth="yes"/>
      <point x="430" y="1365"/>
      <point x="502" y="1052"/>
      <point x="502" y="767" type="qcurve" smooth="yes"/>
      <point x="502" y="689" type="line" smooth="yes"/>
      <point x="502" y="385.0"/>
      <point x="427.0" y="91.0"/>
      <point x="304" y="91" type="qcurve" smooth="yes"/>
    </contour>
  </outline>
</glyph>
<glyph name="E" format="2">
  <advance width="525"/>
  <unicode hex="0045"/>
  <outline>
    <contour>
      <point x="100" y="0" type="line"/>
      <point x="506" y="0" type="line"/>
      <point x="506" y="91" type="line"/>
      <point x="202" y="91" type="line"/>
      <point x="202" y="705" type="line"/>
      <point x="466" y="705" type="line"/>
      <point x="466" y="797" type="line"/>
      <point x="202" y="797" type="line"/>
      <point x="202" y="1365" type="line"/>
      <point x="496" y="1365" type="line"/>
      <point x="496" y="1456" type="line"/>
      <point x="100" y="1456" type="line"/>
    </contour>
  </outline>
</glyph>
<glyph name="J" format="2">
  <advance width="527"/>
  <unicode hex="004A"/>
  <outline>
    <contour>
      <point x="0" y="249" type="line" smooth="yes"/>
      <point x="0" y="107.0"/>
      <point x="119" y="-20"/>
      <point x="223" y="-20" type="qcurve" smooth="yes"/>
      <point x="320" y="-20"/>
      <point x="445.0" y="116.0"/>
      <point x="445.0" y="281" type="qcurve" smooth="yes"/>
      <point x="445" y="1456" type="line"/>
      <point x="344" y="1456" type="line"/>
      <point x="344" y="306" type="line" smooth="yes"/>
      <point x="344.0" y="159.0"/>
      <point x="278" y="71"/>
      <point x="219" y="71" type="qcurve" smooth="yes"/>
      <point x="160.0" y="71.0"/>
      <point x="97.0" y="162.0"/>
      <point x="97" y="269" type="qcurve" smooth="yes"/>
      <point x="97" y="435" type="line"/>
      <point x="0" y="435" type="line"/>
    </contour>
  </outline>
</glyph>
<glyph name="P" format="2">
  <advance width="555"/>
  <unicode hex="0050"/>
  <outline>
    <contour>
      <point x="100" y="0" type="line"/>
      <point x="202" y="0" type="line"/>
      <point x="202" y="674" type="line"/>
      <point x="266" y="674" type="line" smooth="yes"/>
      <point x="397" y="674"/>
      <point x="545" y="892"/>
      <point x="545" y="1071" type="qcurve" smooth="yes"/>
      <point x="545" y="1250"/>
      <point x="418" y="1456"/>
      <point x="266" y="1456" type="qcurve" smooth="yes"/>
      <point x="100" y="1456" type="line"/>
    </contour>
    <contour>
      <point x="202" y="766" type="line"/>
      <point x="202" y="1365" type="line"/>
      <point x="266" y="1365" type="line" smooth="yes"/>
      <point x="351" y="1365"/>
      <point x="442" y="1220"/>
      <point x="442" y="1070" type="qcurve" smooth="yes"/>
      <point x="442" y="920"/>
      <point x="336" y="766"/>
      <point x="247" y="766" type="qcurve" smooth="yes"/>
    </contour>
  </outline>
</glyph>
<glyph name="R" format="2">
  <advance width="583"/>
  <unicode hex="0052"/>
  <outline>
    <contour>
      <point x="100" y="0" type="line"/>
      <point x="202" y="0" type="line"/>
      <point x="202" y="696" type="line"/>
      <point x="247" y="696" type="line" smooth="yes"/>
      <point x="385" y="696"/>
      <point x="539" y="891"/>
      <point x="539" y="1084" type="qcurve" smooth="yes"/>
      <point x="539" y="1278"/>
      <point x="404" y="1456"/>
      <point x="255" y="1456" type="qcurve" smooth="yes"/>
      <point x="100" y="1456" type="line"/>
    </contour>
    <contour>
      <point x="202" y="782" type="line"/>
      <point x="202" y="1365" type="line"/>
      <point x="255" y="1365" type="line" smooth="yes"/>
      <point x="340" y="1365"/>
      <point x="437" y="1237"/>
      <point x="437" y="1083" type="qcurve" smooth="yes"/>
      <point x="437" y="933"/>
      <point x="328" y="782"/>
      <point x="238" y="782" type="qcurve" smooth="yes"/>
    </contour>
    <contour>
      <point x="474" y="0" type="line"/>
      <point x="583" y="0" type="line"/>
      <point x="348" y="730" type="line"/>
      <point x="242" y="730" type="line"/>
    </contour>
  </outline>
</glyph>
<glyph name="S" format="2">
  <advance width="578"/>
  <unicode hex="0053"/>
  <outline>
    <contour>
      <point x="36" y="286" type="line" smooth="yes"/>
      <point x="36" y="134"/>
      <point x="172" y="-20"/>
      <point x="286" y="-20" type="qcurve" smooth="yes"/>
      <point x="400" y="-20"/>
      <point x="536" y="136"/>
      <point x="536" y="294" type="qcurve" smooth="yes"/>
      <point x="536" y="480"/>
      <point x="428" y="697"/>
      <point x="314" y="806" type="qcurve" smooth="yes"/>
      <point x="197" y="917"/>
      <point x="135" y="1050"/>
      <point x="135" y="1163" type="qcurve" smooth="yes"/>
      <point x="135" y="1279"/>
      <point x="209" y="1387"/>
      <point x="281" y="1387" type="qcurve" smooth="yes"/>
      <point x="351" y="1387"/>
      <point x="431" y="1271"/>
      <point x="431" y="1162" type="qcurve" smooth="yes"/>
      <point x="431" y="1035" type="line"/>
      <point x="516" y="1035" type="line"/>
      <point x="516" y="1183" type="line" smooth="yes"/>
      <point x="516" y="1327"/>
      <point x="390" y="1476"/>
      <point x="282" y="1476" type="qcurve" smooth="yes"/>
      <point x="170" y="1476"/>
      <point x="43" y="1322"/>
      <point x="43" y="1169" type="qcurve" smooth="yes"/>
      <point x="43" y="1031"/>
      <point x="109" y="862"/>
      <point x="245" y="738" type="qcurve" smooth="yes"/>
      <point x="360" y="633"/>
      <point x="444" y="430"/>
      <point x="444" y="302" type="qcurve" smooth="yes"/>
      <point x="444" y="187"/>
      <point x="366" y="69"/>
      <point x="288" y="69" type="qcurve" smooth="yes"/>
      <point x="212" y="69"/>
      <point x="128" y="187"/>
      <point x="128" y="306" type="qcurve" smooth="yes"/>
      <point x="128" y="457" type="line"/>
      <point x="36" y="457" type="line"/>
    </contour>
  </outline>
</glyph>
<glyph name="U" format="2">
  <advance width="635"/>
  <unicode hex="0055"/>
  <outline>
    <contour>
      <point x="86" y="286" type="line" smooth="yes"/>
      <point x="86" y="130"/>
      <point x="209" y="-20"/>
      <point x="318" y="-20" type="qcurve" smooth="yes"/>
      <point x="427" y="-20"/>
      <point x="550" y="130"/>
      <point x="549" y="286" type="qcurve" smooth="yes"/>
      <point x="549" y="1456" type="line"/>
      <point x="447" y="1456" type="line"/>
      <point x="447" y="323" type="line" smooth="yes"/>
      <point x="447" y="190"/>
      <point x="381" y="71"/>
      <point x="319" y="71" type="qcurve" smooth="yes"/>
      <point x="248" y="71"/>
      <point x="187" y="190"/>
      <point x="187" y="323" type="qcurve" smooth="yes"/>
      <point x="187" y="1456" type="line"/>
      <point x="86" y="1456" type="line"/>
    </contour>
  </outline>
</glyph>
<glyph name="V" format="2">
  <advance width="536"/>
  <unicode hex="0056"/>
  <guideline x="-92" y="100" angle="0" identifier="xVtBSOkrDt"/>
  <outline>
    <contour>
      <point x="0" y="1456" type="line"/>
      <point x="215" y="-9" type="line"/>
      <point x="312" y="-11" type="line"/>
      <point x="536" y="1456" type="line"/>
      <point x="442" y="1456" type="line"/>
      <point x="291" y="497" type="line" smooth="yes"/>
      <point x="285" y="457"/>
      <point x="271" y="339"/>
      <point x="267" y="300" type="qcurve"/>
      <point x="265" y="300" type="line"/>
      <point x="262" y="339"/>
      <point x="247" y="457"/>
      <point x="242" y="497" type="qcurve" smooth="yes"/>
      <point x="101" y="1456" type="line"/>
    </contour>
  </outline>
</glyph>
<glyph name="W" format="2">
  <advance width="854"/>
  <unicode hex="0057"/>
  <outline>
    <contour>
      <point x="176" y="-9" type="line"/>
      <point x="253" y="-9" type="line"/>
      <point x="398" y="935" type="line" smooth="yes"/>
      <point x="409" y="1009"/>
      <point x="428" y="1195"/>
      <point x="430" y="1239" type="qcurve"/>
      <point x="433" y="1239" type="line"/>
      <point x="435" y="1195"/>
      <point x="454" y="1009"/>
      <point x="465" y="934" type="qcurve" smooth="yes"/>
      <point x="599" y="-9" type="line"/>
      <point x="679" y="-9" type="line"/>
      <point x="844" y="1456" type="line"/>
      <point x="756" y="1456" type="line"/>
      <point x="651" y="517" type="line" smooth="yes"/>
      <point x="645" y="465"/>
      <point x="635" y="329"/>
      <point x="632" y="285" type="qcurve"/>
      <point x="629" y="285" type="line"/>
      <point x="628" y="329"/>
      <point x="611" y="472"/>
      <point x="605" y="517" type="qcurve" smooth="yes"/>
      <point x="478" y="1456" type="line"/>
      <point x="387" y="1456" type="line"/>
      <point x="251" y="518" type="line" smooth="yes"/>
      <point x="244" y="473"/>
      <point x="231" y="329"/>
      <point x="229" y="285" type="qcurve"/>
      <point x="226" y="285" type="line"/>
      <point x="223" y="329"/>
      <point x="208" y="473"/>
      <point x="203" y="518" type="qcurve" smooth="yes"/>
      <point x="106" y="1456" type="line"/>
      <point x="10" y="1456" type="line"/>
    </contour>
  </outline>
</glyph>
<glyph name="X" format="2">
  <advance width="533"/>
  <unicode hex="0058"/>
  <outline>
    <contour>
      <point x="20" y="0" type="line"/>
      <point x="114" y="0" type="line"/>
      <point x="287" y="712" type="line"/>
      <point x="307" y="716" type="line"/>
      <point x="493" y="1456" type="line"/>
      <point x="398" y="1456" type="line"/>
      <point x="238" y="792" type="line"/>
      <point x="217" y="788" type="line"/>
    </contour>
    <contour>
      <point x="40" y="1456" type="line"/>
      <point x="220" y="713" type="line"/>
      <point x="222" y="709" type="line"/>
      <point x="406" y="0" type="line"/>
      <point x="513" y="0" type="line"/>
      <point x="295" y="787" type="line"/>
      <point x="292" y="793" type="line"/>
      <point x="147" y="1456" type="line"/>
    </contour>
  </outline>
</glyph>
<glyph name="Y" format="2">
  <advance width="515"/>
  <unicode hex="0059"/>
  <outline>
    <contour>
      <point x="207" y="0" type="line"/>
      <point x="309" y="0" type="line"/>
      <point x="309" y="589" type="line"/>
      <point x="500" y="1456" type="line"/>
      <point x="401" y="1456" type="line"/>
      <point x="325" y="1083" type="line" smooth="yes"/>
      <point x="308" y="1000"/>
      <point x="272" y="801"/>
      <point x="262" y="737" type="qcurve"/>
      <point x="259" y="737" type="line"/>
      <point x="251" y="799"/>
      <point x="221" y="984"/>
      <point x="203" y="1070" type="qcurve" smooth="yes"/>
      <point x="124" y="1456" type="line"/>
      <point x="15" y="1456" type="line"/>
      <point x="207" y="589" type="line"/>
    </contour>
  </outline>
</glyph>
<glyph name="Z" format="2">
  <advance width="435"/>
  <unicode hex="005A"/>
  <outline>
    <contour>
      <point x="0" y="0" type="line"/>
      <point x="435" y="0" type="line"/>
      <point x="435" y="91" type="line"/>
      <point x="110" y="91" type="line"/>
      <point x="431" y="1397" type="line"/>
      <point x="431" y="1456" type="line"/>
      <point x="13" y="1456" type="line"/>
      <point x="13" y="1365" type="line"/>
      <point x="321" y="1365" type="line"/>
      <point x="0" y="59" type="line"/>
    </contour>
  </outline>
</glyph>
<glyph name="a" format="2">
  <advance width="549"/>
  <unicode hex="0061"/>
  <outline>
    <contour>
      <point x="30" y="252" type="qcurve" smooth="yes"/>
      <point x="30" y="122"/>
      <point x="135.0" y="-10"/>
      <point x="222" y="-10.0" type="qcurve" smooth="yes"/>
      <point x="278" y="-10"/>
      <point x="366" y="56"/>
      <point x="385" y="102" type="qcurve"/>
      <point x="389" y="72"/>
      <point x="397" y="24"/>
      <point x="409" y="0" type="qcurve"/>
      <point x="501" y="0" type="line"/>
      <point x="501" y="16" type="line"/>
      <point x="484" y="59"/>
      <point x="480" y="175"/>
      <point x="480" y="240" type="qcurve" smooth="yes"/>
      <point x="480.0" y="692" type="line" smooth="yes"/>
      <point x="480.0" y="811"/>
      <point x="375" y="924"/>
      <point x="286" y="924" type="qcurve" smooth="yes"/>
      <point x="192" y="924"/>
      <point x="81" y="810"/>
      <point x="82" y="706" type="qcurve" smooth="yes"/>
      <point x="82" y="629" type="line"/>
      <point x="172" y="629" type="line"/>
      <point x="172" y="693" type="line" smooth="yes"/>
      <point x="172" y="775"/>
      <point x="231" y="837"/>
      <point x="280" y="837" type="qcurve" smooth="yes"/>
      <point x="329" y="837"/>
      <point x="381.0" y="762.0"/>
      <point x="381" y="665" type="qcurve" smooth="yes"/>
      <point x="381" y="548" type="line"/>
      <point x="290.0" y="548.0" type="line" smooth="yes"/>
      <point x="173.0" y="548.0"/>
      <point x="30" y="395"/>
    </contour>
    <contour>
      <point x="130" y="248" type="qcurve" smooth="yes"/>
      <point x="130" y="347"/>
      <point x="223.0" y="461"/>
      <point x="311.0" y="461.0" type="qcurve" smooth="yes"/>
      <point x="381" y="461" type="line"/>
      <point x="381" y="245" type="line"/>
      <point x="381" y="180"/>
      <point x="298" y="76"/>
      <point x="245" y="76" type="qcurve" smooth="yes"/>
      <point x="189" y="76.0"/>
      <point x="130" y="153"/>
    </contour>
  </outline>
</glyph>
<glyph name="c" format="2">
  <advance width="498"/>
  <unicode hex="0063"/>
  <outline>
    <contour>
      <point x="56" y="258" type="line" smooth="yes"/>
      <point x="56" y="134"/>
      <point x="172" y="-10"/>
      <point x="265" y="-10" type="qcurve" smooth="yes"/>
      <point x="358" y="-10"/>
      <point x="464" y="135"/>
      <point x="464" y="258" type="qcurve" smooth="yes"/>
      <point x="464" y="349" type="line"/>
      <point x="361" y="349" type="line"/>
      <point x="361" y="246" type="line" smooth="yes"/>
      <point x="361" y="155"/>
      <point x="309" y="80"/>
      <point x="264" y="80" type="qcurve" smooth="yes"/>
      <point x="207" y="80"/>
      <point x="157" y="170"/>
      <point x="157" y="246" type="qcurve" smooth="yes"/>
      <point x="157" y="660" type="line" smooth="yes"/>
      <point x="157" y="758"/>
      <point x="209" y="834"/>
      <point x="264" y="834" type="qcurve" smooth="yes"/>
      <point x="319" y="834"/>
      <point x="361" y="758"/>
      <point x="361" y="660" type="qcurve" smooth="yes"/>
      <point x="361" y="566" type="line"/>
      <point x="464" y="566" type="line"/>
      <point x="464" y="678" type="line" smooth="yes"/>
      <point x="464" y="800"/>
      <point x="361" y="924"/>
      <point x="265" y="924" type="qcurve" smooth="yes"/>
      <point x="169" y="924"/>
      <point x="56" y="780"/>
      <point x="56" y="658" type="qcurve" smooth="yes"/>
    </contour>
  </outline>
</glyph>
<glyph name="g" format="2">
  <advance width="553"/>
  <unicode hex="0067"/>
  <outline>
    <contour>
      <point x="56" y="-163" type="line"/>
      <point x="63" y="-287"/>
      <point x="154" y="-426"/>
      <point x="258" y="-426" type="qcurve" smooth="yes"/>
      <point x="365" y="-426"/>
      <point x="475" y="-248"/>
      <point x="475" y="-99" type="qcurve" smooth="yes"/>
      <point x="475" y="914" type="line"/>
      <point x="380" y="914" type="line"/>
      <point x="380" y="809" type="line"/>
      <point x="379" y="809" type="line"/>
      <point x="367" y="857"/>
      <point x="294" y="924"/>
      <point x="239" y="924" type="qcurve" smooth="yes"/>
      <point x="153" y="924"/>
      <point x="64" y="778"/>
      <point x="64" y="660" type="qcurve" smooth="yes"/>
      <point x="64" y="255" type="line" smooth="yes"/>
      <point x="64" y="138"/>
      <point x="153" y="-2"/>
      <point x="234" y="-2" type="qcurve" smooth="yes"/>
      <point x="284" y="-2"/>
      <point x="355" y="49"/>
      <point x="377" y="91" type="qcurve"/>
      <point x="376" y="-120" type="line" smooth="yes"/>
      <point x="375" y="-236"/>
      <point x="314" y="-339"/>
      <point x="261" y="-339" type="qcurve" smooth="yes"/>
      <point x="206" y="-339"/>
      <point x="152" y="-242"/>
      <point x="149" y="-152" type="qcurve"/>
    </contour>
    <contour>
      <point x="163" y="241" type="qcurve" smooth="yes"/>
      <point x="163" y="625" type="line" smooth="yes"/>
      <point x="163" y="719"/>
      <point x="217" y="834"/>
      <point x="266" y="834" type="qcurve" smooth="yes"/>
      <point x="310" y="834"/>
      <point x="364" y="742"/>
      <point x="376" y="681" type="qcurve"/>
      <point x="376" y="208" type="line"/>
      <point x="365" y="160"/>
      <point x="302" y="88"/>
      <point x="262" y="88" type="qcurve" smooth="yes"/>
      <point x="214" y="88"/>
      <point x="163" y="171"/>
    </contour>
  </outline>
</glyph>
<glyph name="h" format="2">
  <advance width="541"/>
  <unicode hex="0068"/>
  <outline>
    <contour>
      <point x="78" y="0" type="line"/>
      <point x="177" y="0" type="line"/>
      <point x="177" y="700" type="line"/>
      <point x="190" y="766"/>
      <point x="250" y="836"/>
      <point x="286" y="836" type="qcurve" smooth="yes"/>
      <point x="328" y="836"/>
      <point x="374" y="776"/>
      <point x="374" y="709" type="qcurve" smooth="yes"/>
      <point x="374" y="0" type="line"/>
      <point x="473" y="0" type="line"/>
      <point x="473" y="715" type="line" smooth="yes"/>
      <point x="473" y="828"/>
      <point x="395" y="924"/>
      <point x="333" y="924" type="qcurve" smooth="yes"/>
      <point x="277" y="924"/>
      <point x="195" y="876"/>
      <point x="177" y="821" type="qcurve"/>
      <point x="177" y="1458" type="line"/>
      <point x="78" y="1458" type="line"/>
    </contour>
  </outline>
</glyph>
<glyph name="i" format="2">
  <advance width="257"/>
  <unicode hex="0069"/>
  <outline>
    <contour>
      <point x="79" y="0" type="line"/>
      <point x="178" y="0" type="line"/>
      <point x="178" y="914" type="line"/>
      <point x="79" y="914" type="line"/>
    </contour>
    <contour>
      <point x="58" y="1204" type="qcurve" smooth="yes"/>
      <point x="58" y="1173"/>
      <point x="94" y="1129"/>
      <point x="128" y="1129" type="qcurve" smooth="yes"/>
      <point x="162" y="1129"/>
      <point x="199" y="1173"/>
      <point x="199" y="1204" type="qcurve" smooth="yes"/>
      <point x="199" y="1236"/>
      <point x="163" y="1278"/>
      <point x="129" y="1278" type="qcurve" smooth="yes"/>
      <point x="95" y="1278"/>
      <point x="58" y="1235"/>
    </contour>
  </outline>
</glyph>
<glyph name="k" format="2">
  <advance width="468"/>
  <unicode hex="006B"/>
  <outline>
    <contour>
      <point x="78" y="0" type="line"/>
      <point x="177" y="0" type="line"/>
      <point x="177" y="408" type="line"/>
      <point x="464" y="914" type="line"/>
      <point x="350" y="914" type="line"/>
      <point x="177" y="573" type="line"/>
      <point x="177" y="1458" type="line"/>
      <point x="78" y="1458" type="line"/>
    </contour>
    <contour>
      <point x="399" y="0" type="line"/>
      <point x="509" y="0" type="line"/>
      <point x="262" y="591" type="line"/>
      <point x="206" y="491" type="line"/>
    </contour>
  </outline>
</glyph>
<glyph name="o" format="2">
  <advance width="550"/>
  <unicode hex="006F"/>
  <outline>
    <contour>
      <point x="56" y="258" type="line" smooth="yes"/>
      <point x="56" y="134"/>
      <point x="175" y="-10"/>
      <point x="275" y="-10" type="qcurve" smooth="yes"/>
      <point x="374" y="-10"/>
      <point x="494" y="134"/>
      <point x="494" y="258" type="qcurve" smooth="yes"/>
      <point x="494" y="658" type="line" smooth="yes"/>
      <point x="494" y="780"/>
      <point x="374" y="924"/>
      <point x="275" y="924" type="qcurve" smooth="yes"/>
      <point x="175" y="924"/>
      <point x="56" y="780"/>
      <point x="56" y="658" type="qcurve" smooth="yes"/>
    </contour>
    <contour>
      <point x="157" y="640" type="line" smooth="yes"/>
      <point x="157" y="738"/>
      <point x="218" y="834"/>
      <point x="274" y="834" type="qcurve" smooth="yes"/>
      <point x="331" y="834"/>
      <point x="391" y="738"/>
      <point x="391" y="640" type="qcurve" smooth="yes"/>
      <point x="391" y="246" type="line" smooth="yes"/>
      <point x="391" y="170"/>
      <point x="331" y="80"/>
      <point x="274" y="80" type="qcurve" smooth="yes"/>
      <point x="217" y="80"/>
      <point x="157" y="170"/>
      <point x="157" y="246" type="qcurve" smooth="yes"/>
    </contour>
  </outline>
</glyph>
<glyph name="p" format="2">
  <advance width="548"/>
  <unicode hex="0070"/>
  <outline>
    <contour>
      <point x="78" y="-416" type="line"/>
      <point x="177" y="-416" type="line"/>
      <point x="177" y="66" type="line"/>
      <point x="192" y="32"/>
      <point x="260" y="-9"/>
      <point x="318" y="-9" type="qcurve" smooth="yes"/>
      <point x="397" y="-9"/>
      <point x="492" y="106"/>
      <point x="492" y="204" type="qcurve" smooth="yes"/>
      <point x="492" y="728" type="line" smooth="yes"/>
      <point x="492" y="823"/>
      <point x="407" y="924"/>
      <point x="328" y="924" type="qcurve" smooth="yes"/>
      <point x="273" y="924"/>
      <point x="189" y="867"/>
      <point x="173" y="818" type="qcurve"/>
      <point x="172" y="818" type="line"/>
      <point x="172" y="914" type="line"/>
      <point x="78" y="914" type="line"/>
    </contour>
    <contour>
      <point x="177" y="214" type="qcurve"/>
      <point x="177" y="691" type="line"/>
      <point x="187" y="755"/>
      <point x="247" y="836"/>
      <point x="296" y="836" type="qcurve" smooth="yes"/>
      <point x="348" y="836"/>
      <point x="390" y="772"/>
      <point x="390" y="698" type="qcurve" smooth="yes"/>
      <point x="390" y="252" type="line" smooth="yes"/>
      <point x="390" y="165"/>
      <point x="337" y="80"/>
      <point x="286" y="80" type="qcurve" smooth="yes"/>
      <point x="232" y="80"/>
      <point x="177" y="159"/>
    </contour>
  </outline>
</glyph>
<glyph name="r" format="2">
  <advance width="394"/>
  <unicode hex="0072"/>
  <outline>
    <contour>
      <point x="78" y="0" type="line"/>
      <point x="177" y="0" type="line"/>
      <point x="177" y="685" type="line"/>
      <point x="209" y="755"/>
      <point x="302" y="833"/>
      <point x="347" y="833" type="qcurve" smooth="yes"/>
      <point x="361" y="833"/>
      <point x="380" y="831"/>
      <point x="395" y="827" type="qcurve"/>
      <point x="395" y="918" type="line"/>
      <point x="386" y="921"/>
      <point x="366" y="924"/>
      <point x="347" y="924" type="qcurve" smooth="yes"/>
      <point x="306" y="924"/>
      <point x="205" y="863"/>
      <point x="173" y="806" type="qcurve"/>
      <point x="172" y="806" type="line"/>
      <point x="172" y="914" type="line"/>
      <point x="78" y="914" type="line"/>
    </contour>
  </outline>
</glyph>
<glyph name="v" format="2">
  <advance width="483"/>
  <unicode hex="0076"/>
  <outline>
    <contour>
      <point x="0" y="914" type="line"/>
      <point x="193" y="0" type="line"/>
      <point x="290" y="0" type="line"/>
      <point x="483" y="914" type="line"/>
      <point x="382" y="914" type="line"/>
      <point x="284" y="422" type="line" smooth="yes"/>
      <point x="273" y="369"/>
      <point x="252" y="241"/>
      <point x="246" y="190" type="qcurve"/>
      <point x="241" y="190" type="line"/>
      <point x="236" y="241"/>
      <point x="212" y="369"/>
      <point x="202" y="422" type="qcurve" smooth="yes"/>
      <point x="109" y="914" type="line"/>
    </contour>
  </outline>
</glyph>
<glyph name="x" format="2">
  <advance width="447"/>
  <unicode hex="0078"/>
  <outline>
    <contour>
      <point x="0" y="0" type="line"/>
      <point x="93" y="0" type="line"/>
      <point x="242" y="444" type="line"/>
      <point x="258" y="454" type="line"/>
      <point x="431" y="914" type="line"/>
      <point x="337" y="914" type="line"/>
      <point x="202" y="532" type="line"/>
      <point x="185" y="518" type="line"/>
    </contour>
    <contour>
      <point x="18" y="914" type="line"/>
      <point x="190" y="443" type="line"/>
      <point x="199" y="426" type="line"/>
      <point x="330" y="0" type="line"/>
      <point x="437" y="0" type="line"/>
      <point x="262" y="496" type="line"/>
      <point x="253" y="516" type="line"/>
      <point x="125" y="914" type="line"/>
    </contour>
  </outline>
</glyph>
<glyph name="yen" format="2">
  <advance width="1084"/>
  <unicode hex="00A5"/>
  <outline>
    <contour>
      <point x="171" y="292" type="line"/>
      <point x="913" y="292" type="line"/>
      <point x="913" y="369" type="line"/>
      <point x="171" y="369" type="line"/>
    </contour>
    <contour>
      <point x="171" y="579" type="line"/>
      <point x="913" y="579" type="line"/>
      <point x="913" y="657" type="line"/>
      <point x="171" y="657" type="line"/>
    </contour>
    <contour>
      <point x="492" y="0" type="line"/>
      <point x="591" y="0" type="line"/>
      <point x="591" y="650" type="line"/>
      <point x="980" y="1456" type="line"/>
      <point x="867" y="1456" type="line"/>
      <point x="595" y="896" type="line" smooth="yes"/>
      <point x="580" y="866"/>
      <point x="558" y="806"/>
      <point x="549" y="776" type="qcurve"/>
      <point x="543" y="776" type="line"/>
      <point x="535" y="806"/>
      <point x="513" y="866"/>
      <point x="499" y="896" type="qcurve" smooth="yes"/>
      <point x="221" y="1456" type="line"/>
      <point x="104" y="1456" type="line"/>
      <point x="492" y="649" type="line"/>
    </contour>
  </outline>
</glyph>
<glyph name="logicalnot" format="2">
  <advance width="1021"/>
  <unicode hex="00AC"/>
  <outline>
    <contour>
      <point x="175" y="652" type="line"/>
      <point x="760" y="652" type="line"/>
      <point x="760" y="428" type="line"/>
      <point x="846" y="428" type="line"/>
      <point x="846" y="734" type="line"/>
      <point x="175" y="734" type="line"/>
    </contour>
  </outline>
</glyph>
<glyph name="macron" format="2">
  <advance width="968"/>
  <unicode hex="00AF"/>
  <outline>
    <contour>
      <point x="257" y="1218" type="line"/>
      <point x="711" y="1218" type="line"/>
      <point x="711" y="1294" type="line"/>
      <point x="257" y="1294" type="line"/>
    </contour>
  </outline>
</glyph>
<glyph name="plusminus" format="2">
  <advance width="1170"/>
  <unicode hex="00B1"/>
  <outline>
    <contour>
      <point x="256" y="643" type="line"/>
      <point x="914" y="643" type="line"/>
      <point x="914" y="722" type="line"/>
      <point x="256" y="722" type="line"/>
    </contour>
    <contour>
      <point x="541" y="346" type="line"/>
      <point x="629" y="346" type="line"/>
      <point x="629" y="1013" type="line"/>
      <point x="541" y="1013" type="line"/>
    </contour>
    <contour>
      <point x="256" y="99" type="line"/>
      <point x="914" y="99" type="line"/>
      <point x="914" y="176" type="line"/>
      <point x="256" y="176" type="line"/>
    </contour>
  </outline>
</glyph>
<glyph name="Oslash" format="2">
  <advance width="1021"/>
  <unicode hex="00D8"/>
  <outline>
    <contour>
      <point x="36" y="-80" type="line"/>
      <point x="133" y="-80" type="line"/>
      <point x="255" y="150" type="line"/>
      <point x="255" y="150" type="line"/>
      <point x="563" y="726" type="line"/>
      <point x="469" y="726" type="line"/>
      <point x="215" y="250" type="line"/>
      <point x="214" y="250" type="line"/>
    </contour>
    <contour>
      <point x="469" y="726" type="line"/>
      <point x="563" y="726" type="line"/>
      <point x="818" y="1202" type="line"/>
      <point x="818" y="1202" type="line"/>
      <point x="997" y="1532" type="line"/>
      <point x="900" y="1532" type="line"/>
      <point x="776" y="1302" type="line"/>
      <point x="776" y="1302" type="line"/>
    </contour>
    <contour>
      <point x="91" y="682" type="line" smooth="yes"/>
      <point x="91" y="326"/>
      <point x="322" y="-20"/>
      <point x="510" y="-20" type="qcurve" smooth="yes"/>
      <point x="698" y="-20"/>
      <point x="930" y="326"/>
      <point x="930" y="682" type="qcurve" smooth="yes"/>
      <point x="930" y="774" type="line" smooth="yes"/>
      <point x="930" y="1140"/>
      <point x="698" y="1476"/>
      <point x="510" y="1476" type="qcurve" smooth="yes"/>
      <point x="322" y="1476"/>
      <point x="91" y="1140"/>
      <point x="91" y="774" type="qcurve" smooth="yes"/>
    </contour>
    <contour>
      <point x="194" y="682" type="qcurve" smooth="yes"/>
      <point x="194" y="774" type="line" smooth="yes"/>
      <point x="194" y="1105.1121951219511"/>
      <point x="365.0" y="1385.0"/>
      <point x="510" y="1385" type="qcurve" smooth="yes"/>
      <point x="656.0" y="1385.0"/>
      <point x="826" y="1105.1121951219511"/>
      <point x="826" y="774" type="qcurve" smooth="yes"/>
      <point x="826" y="682" type="line" smooth="yes"/>
      <point x="826" y="360.74146341463415"/>
      <point x="656.0" y="71.0"/>
      <point x="510" y="71" type="qcurve" smooth="yes"/>
      <point x="365.0" y="71.0"/>
      <point x="194" y="360.74146341463415"/>
    </contour>
  </outline>
</glyph>
<glyph name="germandbls" format="2">
  <advance width="817"/>
  <unicode hex="00DF"/>
  <outline>
    <contour>
      <point x="120" y="-1" type="line"/>
      <point x="219" y="-1" type="line"/>
      <point x="219" y="1049" type="line" smooth="yes"/>
      <point x="219" y="1227.5833333333333"/>
      <point x="298.0" y="1379.0"/>
      <point x="368" y="1379" type="qcurve" smooth="yes"/>
      <point x="436.0" y="1379.0"/>
      <point x="501.0" y="1257.656108597285"/>
      <point x="501" y="1165" type="qcurve" smooth="yes"/>
      <point x="501.0" y="1103.7045454545455"/>
      <point x="473.0147681583753" y="1018.5830383270655"/>
      <point x="451" y="978" type="qcurve" smooth="yes"/>
      <point x="428" y="935"/>
      <point x="387" y="843"/>
      <point x="387" y="781" type="qcurve" smooth="yes"/>
      <point x="387.0" y="689.5625"/>
      <point x="461.4702301879661" y="562.6108439823729"/>
      <point x="512" y="515" type="qcurve" smooth="yes"/>
      <point x="574.4340242170858" y="455.6341795884562"/>
      <point x="678.0" y="338.8939393939394"/>
      <point x="678" y="259" type="qcurve" smooth="yes"/>
      <point x="678.0" y="170.64646464646466"/>
      <point x="602.0" y="69.0"/>
      <point x="531" y="69" type="qcurve" smooth="yes"/>
      <point x="470" y="69"/>
      <point x="369" y="117"/>
      <point x="340" y="139" type="qcurve"/>
      <point x="316" y="56" type="line"/>
      <point x="346" y="29"/>
      <point x="471" y="-20"/>
      <point x="543" y="-20" type="qcurve" smooth="yes"/>
      <point x="647" y="-20"/>
      <point x="780" y="123"/>
      <point x="780" y="261" type="qcurve" smooth="yes"/>
      <point x="780.0" y="371.38412698412696"/>
      <point x="651.608213868166" y="520.3220159987677"/>
      <point x="589" y="579" type="qcurve" smooth="yes"/>
      <point x="545.5069555749664" y="622.4226095071717"/>
      <point x="486.0" y="715.273631840796"/>
      <point x="486" y="779" type="qcurve" smooth="yes"/>
      <point x="486" y="825"/>
      <point x="514" y="896"/>
      <point x="534" y="931" type="qcurve" smooth="yes"/>
      <point x="559.8458673925688" y="977.3292201883226"/>
      <point x="603.0" y="1082.1181434599157"/>
      <point x="603" y="1179" type="qcurve" smooth="yes"/>
      <point x="603.0" y="1299.8333333333333"/>
      <point x="482.0" y="1468.0"/>
      <point x="368" y="1468" type="qcurve" smooth="yes"/>
      <point x="258" y="1468"/>
      <point x="120" y="1261"/>
      <point x="120" y="1049" type="qcurve" smooth="yes"/>
    </contour>
  </outline>
</glyph>
<glyph name="OE" format="2">
  <advance width="1349"/>
  <unicode hex="0152"/>
  <outline>
    <contour>
      <point x="86" y="682" type="line" smooth="yes"/>
      <point x="86" y="346"/>
      <point x="321" y="-20"/>
      <point x="505" y="-20" type="qcurve" smooth="yes"/>
      <point x="580" y="-20"/>
      <point x="724" y="37"/>
      <point x="768" y="99" type="qcurve"/>
      <point x="768" y="203" type="line"/>
      <point x="729" y="136"/>
      <point x="597" y="69"/>
      <point x="511" y="69" type="qcurve" smooth="yes"/>
      <point x="366.0" y="69.0"/>
      <point x="189" y="387.80582524271847"/>
      <point x="189" y="682" type="qcurve" smooth="yes"/>
      <point x="189" y="774" type="line" smooth="yes"/>
      <point x="189" y="1068.1941747572814"/>
      <point x="366.0" y="1387.0"/>
      <point x="511" y="1387" type="qcurve" smooth="yes"/>
      <point x="597" y="1387"/>
      <point x="729" y="1310"/>
      <point x="768" y="1243" type="qcurve"/>
      <point x="768" y="1357" type="line"/>
      <point x="724" y="1419"/>
      <point x="580" y="1476"/>
      <point x="505" y="1476" type="qcurve" smooth="yes"/>
      <point x="321" y="1476"/>
      <point x="86" y="1110"/>
      <point x="86" y="774" type="qcurve" smooth="yes"/>
    </contour>
    <contour>
      <point x="745" y="0" type="line"/>
      <point x="1353" y="0" type="line"/>
      <point x="1353" y="81" type="line"/>
      <point x="846" y="81" type="line"/>
      <point x="846" y="711" type="line"/>
      <point x="1268" y="711" type="line"/>
      <point x="1268" y="791" type="line"/>
      <point x="846" y="791" type="line"/>
      <point x="846" y="1375" type="line"/>
      <point x="1345" y="1375" type="line"/>
      <point x="1345" y="1456" type="line"/>
      <point x="745" y="1456" type="line"/>
    </contour>
  </outline>
</glyph>
<glyph name="dagger" format="2">
  <advance width="1089"/>
  <unicode hex="2020"/>
  <outline>
    <contour>
      <point x="506" y="-220" type="line"/>
      <point x="583" y="-220" type="line"/>
      <point x="594" y="519" type="line"/>
      <point x="585" y="1015" type="line"/>
      <point x="599" y="1516" type="line"/>
      <point x="490" y="1516" type="line"/>
      <point x="504" y="1015" type="line"/>
      <point x="495" y="519" type="line"/>
    </contour>
    <contour>
      <point x="151" y="981" type="line"/>
      <point x="544" y="986" type="line"/>
      <point x="938" y="981" type="line"/>
      <point x="938" y="1058" type="line"/>
      <point x="544" y="1053" type="line"/>
      <point x="151" y="1058" type="line"/>
    </contour>
  </outline>
</glyph>
<glyph name="guilsinglleft" format="2">
  <advance width="495"/>
  <unicode hex="2039"/>
  <outline>
    <contour>
      <point x="341" y="199" type="line"/>
      <point x="434" y="199" type="line"/>
      <point x="193" y="602" type="line"/>
      <point x="434" y="1005" type="line"/>
      <point x="341" y="1005" type="line"/>
      <point x="72" y="612" type="line"/>
      <point x="72" y="592" type="line"/>
    </contour>
  </outline>
</glyph>
<glyph name="minus" format="2">
  <advance width="1021"/>
  <unicode hex="2212"/>
  <outline>
    <contour>
      <point x="179" y="633" type="line"/>
      <point x="842" y="633" type="line"/>
      <point x="842" y="715" type="line"/>
      <point x="179" y="715" type="line"/>
    </contour>
  </outline>
</glyph>
<glyph name="f_f_i" format="2">
  <advance width="1090"/>
  <unicode hex="FB03"/>
  <outline>
    <contour>
      <point x="132" y="0" type="line"/>
      <point x="231" y="0" type="line"/>
      <point x="231" y="874" type="line"/>
      <point x="231" y="885" type="line"/>
      <point x="231" y="1141" type="line" smooth="yes"/>
      <point x="231" y="1272.8076923076924"/>
      <point x="298.0" y="1395.0"/>
      <point x="368" y="1395" type="qcurve" smooth="yes"/>
      <point x="407" y="1395"/>
      <point x="470" y="1368"/>
      <point x="501" y="1353" type="qcurve"/>
      <point x="520" y="1430" type="line"/>
      <point x="484" y="1451"/>
      <point x="402" y="1478"/>
      <point x="360" y="1478" type="qcurve" smooth="yes"/>
      <point x="256" y="1478"/>
      <point x="132" y="1307"/>
      <point x="132" y="1141" type="qcurve" smooth="yes"/>
    </contour>
    <contour>
      <point x="-10" y="824" type="line"/>
      <point x="379" y="824" type="line"/>
      <point x="379" y="914" type="line"/>
      <point x="172" y="914" type="line"/>
      <point x="164" y="914" type="line"/>
      <point x="-10" y="914" type="line"/>
    </contour>
    <contour>
      <point x="510" y="0" type="line"/>
      <point x="610" y="0" type="line"/>
      <point x="610" y="874" type="line"/>
      <point x="610" y="885" type="line"/>
      <point x="610" y="1141" type="line" smooth="yes"/>
      <point x="610" y="1272.8076923076924"/>
      <point x="686.0" y="1395.0"/>
      <point x="763" y="1395" type="qcurve" smooth="yes"/>
      <point x="802" y="1395"/>
      <point x="871" y="1368"/>
      <point x="900" y="1355" type="qcurve"/>
      <point x="921" y="1432" type="line"/>
      <point x="882" y="1452"/>
      <point x="798" y="1478"/>
      <point x="755" y="1478" type="qcurve" smooth="yes"/>
      <point x="641" y="1478"/>
      <point x="510" y="1307"/>
      <point x="510" y="1141" type="qcurve" smooth="yes"/>
    </contour>
    <contour>
      <point x="365" y="824" type="line"/>
      <point x="781" y="824" type="line"/>
      <point x="781" y="914" type="line"/>
      <point x="547" y="914" type="line"/>
      <point x="539" y="914" type="line"/>
      <point x="365" y="914" type="line"/>
    </contour>
    <contour>
      <point x="888" y="0" type="line"/>
      <point x="987" y="0" type="line"/>
      <point x="987" y="914" type="line"/>
      <point x="888" y="914" type="line"/>
    </contour>
  </outline>
</glyph>
<glyph name="nine.pnum" format="2">
  <advance width="545"/>
  <outline>
    <contour>
      <point x="24" y="1011" type="qcurve" smooth="yes"/>
      <point x="24" y="769"/>
      <point x="128" y="566"/>
      <point x="242" y="566" type="qcurve" smooth="yes"/>
      <point x="348" y="566"/>
      <point x="466" y="802"/>
      <point x="466" y="1001" type="qcurve"/>
      <point x="397" y="1001" type="line"/>
      <point x="397" y="846"/>
      <point x="337" y="654"/>
      <point x="252" y="654" type="qcurve" smooth="yes"/>
      <point x="178" y="654"/>
      <point x="124" y="800"/>
      <point x="124" y="1011" type="qcurve" smooth="yes"/>
      <point x="124" y="1237"/>
      <point x="182" y="1386"/>
      <point x="251" y="1386" type="qcurve" smooth="yes"/>
      <point x="334" y="1386"/>
      <point x="398" y="1147"/>
      <point x="398" y="852" type="qcurve" smooth="yes"/>
      <point x="398" y="832" type="line" smooth="yes"/>
      <point x="398" y="460"/>
      <point x="302" y="81"/>
      <point x="156" y="81" type="qcurve" smooth="yes"/>
      <point x="105" y="81" type="line"/>
      <point x="105" y="-10" type="line"/>
      <point x="156" y="-10" type="line" smooth="yes"/>
      <point x="358" y="-10"/>
      <point x="493" y="428"/>
      <point x="493" y="822" type="qcurve" smooth="yes"/>
      <point x="493" y="852" type="line" smooth="yes"/>
      <point x="493" y="1217"/>
      <point x="367" y="1476"/>
      <point x="256" y="1476" type="qcurve" smooth="yes"/>
      <point x="142" y="1476"/>
      <point x="24" y="1261"/>
    </contour>
  </outline>
</glyph>
<glyph name="seven.pnum" format="2">
  <advance width="476"/>
  <outline>
    <contour>
      <point x="78" y="0" type="line"/>
      <point x="188" y="0" type="line"/>
      <point x="468" y="1374" type="line"/>
      <point x="468" y="1456" type="line"/>
      <point x="9" y="1456" type="line"/>
      <point x="9" y="1356" type="line"/>
      <point x="361" y="1356" type="line"/>
    </contour>
  </outline>
</glyph>
